<?xml version="1.0" standalone="no"?>
<!DOCTYPE svg PUBLIC "-//W3C//DTD SVG 20010904//EN"
 "http://www.w3.org/TR/2001/REC-SVG-20010904/DTD/svg10.dtd">
<svg version="1.0" xmlns="http://www.w3.org/2000/svg"
 width="869.000000pt" height="595.000000pt" viewBox="0 0 869.000000 595.000000"
 preserveAspectRatio="xMidYMid meet">

<g transform="translate(0.000000,595.000000) scale(0.100000,-0.100000)"
fill="#000000" stroke="none">
<path d="M6325 4720 c-16 -4 -99 -13 -184 -20 -85 -6 -158 -13 -162 -16 -4 -2
-159 -7 -346 -10 -186 -3 -405 -10 -488 -16 -174 -12 -294 -13 -303 -3 -4 4
-1 10 6 12 20 8 13 23 -11 23 -13 0 -28 5 -33 10 -7 7 -66 4 -190 -10 -611
-72 -1142 -173 -1727 -332 l-227 -61 6 -36 c16 -86 69 -277 114 -411 155 -462
404 -917 809 -1480 177 -246 424 -569 435 -570 5 0 77 38 160 84 939 521 1948
820 3116 923 l205 18 -125 3 c-69 2 -237 -4 -375 -13 -211 -14 -258 -14 -300
-3 -43 11 -51 17 -59 46 -5 18 -6 35 -3 38 3 4 66 15 139 26 89 12 141 25 158
37 18 13 82 27 203 47 128 20 177 32 177 41 0 8 -12 36 -26 64 -14 28 -24 53
-22 55 2 2 20 -8 40 -22 67 -48 209 -67 328 -44 30 6 54 11 55 13 1 1 0 19 -3
40 -4 37 -4 37 -52 37 -97 0 -106 21 -20 47 33 9 60 23 60 30 0 15 -57 16
-510 4 -203 -6 -312 -5 -325 2 -19 10 -19 10 1 18 12 4 66 13 120 19 54 7 114
18 133 26 18 8 38 11 43 8 5 -4 68 0 139 7 93 9 129 17 129 26 0 18 -205 17
-414 -3 -164 -15 -165 -15 -215 7 -44 19 -58 20 -108 12 l-58 -10 34 -15 c19
-9 41 -14 48 -11 7 3 16 -3 19 -12 5 -13 -6 -30 -39 -61 -26 -24 -47 -52 -47
-62 0 -22 26 -60 62 -90 38 -32 26 -45 -35 -39 -35 3 -58 0 -78 -12 -23 -13
-33 -14 -60 -4 -28 11 -35 10 -57 -7 -28 -23 -53 -25 -69 -9 -9 9 -18 8 -37
-5 -31 -20 -46 -20 -46 -2 0 26 56 71 119 94 57 22 61 26 60 55 0 46 -32 119
-61 140 -14 11 -79 35 -144 54 -66 19 -155 51 -199 70 -72 32 -90 36 -180 38
l-100 3 95 -7 c77 -7 110 -15 175 -44 44 -19 92 -39 108 -42 30 -8 32 -13 15
-51 -11 -23 -10 -28 11 -45 15 -12 39 -19 68 -19 l45 0 -23 -37 c-55 -93 -55
-92 -26 -144 15 -26 27 -54 27 -63 0 -25 -36 -38 -76 -27 -30 8 -38 7 -55 -10
-20 -20 -45 -24 -68 -10 -10 6 -23 3 -42 -11 -22 -16 -33 -18 -56 -11 -22 8
-33 6 -56 -11 -35 -26 -50 -12 -32 30 11 27 22 34 78 49 37 10 75 27 86 39 19
21 19 21 -5 91 -32 92 -48 112 -130 162 -87 53 -144 106 -144 134 0 20 -4 21
-41 15 -78 -13 -195 -66 -327 -151 l-133 -84 8 52 c12 76 9 169 -6 195 -17 31
-24 22 -11 -12 17 -46 11 -149 -15 -252 -14 -54 -25 -108 -25 -120 0 -35 27
-49 87 -47 29 2 53 -1 53 -5 0 -19 -41 -70 -73 -92 -43 -29 -44 -34 -17 -78
42 -69 15 -120 -56 -109 -26 4 -35 1 -47 -16 -11 -17 -24 -21 -58 -21 -32 0
-48 -5 -58 -19 -9 -13 -23 -17 -46 -15 -22 1 -41 -4 -55 -17 -18 -16 -23 -17
-31 -5 -14 21 -3 83 18 98 9 7 41 20 71 29 54 17 102 59 102 89 0 34 -33 89
-88 147 -97 103 -133 154 -152 214 -12 36 -19 48 -19 33 -1 -31 32 -103 66
-149 l26 -34 -59 7 c-103 12 -212 47 -272 86 -112 72 -159 155 -150 263 6 75
37 130 125 219 66 66 75 79 63 92 -19 24 -46 19 -69 -11 l-21 -26 -38 27 c-35
25 -37 26 -40 6 -4 -22 -14 -25 -43 -10 -14 8 -29 6 -60 -10 -38 -20 -40 -20
-39 -3 4 32 1 32 -42 13 -54 -25 -77 -25 -73 -2 2 9 4 31 4 48 l1 31 108 6
c59 4 118 10 131 13 20 6 23 4 18 -10 -6 -15 -1 -16 56 -10 79 8 91 18 15 12
-45 -4 -55 -2 -51 9 5 12 -7 13 -68 6 -157 -17 -259 -7 -259 26 0 8 400 5 423
-4 9 -4 17 -13 17 -21 0 -8 5 -14 10 -14 6 0 10 4 10 8 0 16 -45 49 -123 91
-76 39 -79 40 -84 20 -6 -21 -20 -21 -68 -3 -14 6 -16 3 -11 -14 8 -26 12 -26
-116 25 -93 38 -138 79 -138 126 0 49 105 66 125 20 5 -13 14 -23 20 -23 24 0
252 83 268 98 11 10 17 25 14 39 -3 18 1 25 22 31 25 6 101 7 166 0 27 -3 30
0 30 25 -1 25 2 27 42 27 24 0 60 -7 80 -15 48 -20 49 -20 62 16 10 28 12 30
48 23 21 -4 55 -13 77 -20 51 -18 65 -18 109 6 36 20 37 20 37 1 0 -11 -12
-34 -26 -51 l-27 -31 32 -27 c26 -21 38 -45 56 -107 13 -44 19 -81 14 -83 -20
-8 -101 33 -120 60 -21 29 -57 54 -66 45 -2 -3 3 -20 12 -37 l17 -33 -49 7
-48 6 35 -14 c19 -7 43 -17 53 -21 13 -5 17 -2 17 15 0 12 -5 31 -11 43 -6 12
7 4 29 -20 23 -22 54 -44 71 -48 18 -4 44 -23 66 -51 20 -24 35 -44 33 -44
-18 0 -158 45 -175 55 -20 13 -22 13 -28 -6 -7 -21 -29 -22 -76 -4 -13 5 -15
1 -11 -21 4 -24 3 -26 -19 -19 -51 16 -53 16 -19 -4 45 -26 47 -26 54 4 6 22
9 23 32 15 35 -14 44 -13 44 5 0 8 3 15 6 15 19 0 144 -43 144 -50 0 -4 11
-19 25 -32 l25 -25 -27 -6 c-29 -6 -101 4 -121 17 -7 4 -12 3 -12 -3 0 -11 86
-31 137 -31 20 0 54 -5 76 -12 32 -10 36 -13 21 -19 -11 -4 -33 -8 -51 -8 -31
-1 -32 -2 -26 -36 l6 -35 -63 6 c-60 5 -64 4 -94 -25 l-32 -31 -51 49 c-56 53
-73 52 -73 -6 0 -36 -13 -41 -44 -18 -28 21 -34 19 -41 -15 -8 -36 -21 -46
-40 -30 -19 16 -19 1 0 -24 13 -17 15 -17 34 15 12 19 22 38 24 44 2 5 16 1
31 -9 33 -21 42 -14 53 38 l8 38 49 -52 48 -52 34 33 c34 33 36 33 109 30 l75
-3 -10 27 c-14 37 -13 45 8 45 9 0 34 5 55 11 38 10 42 29 6 29 -10 0 -19 3
-19 8 0 4 82 18 183 30 100 13 207 30 237 37 30 8 125 21 210 30 202 20 331
48 371 82 40 34 37 70 -11 98 -50 29 -203 27 -370 -5 -106 -20 -156 -24 -335
-25 -115 0 -216 -4 -222 -8 -7 -5 -13 -17 -13 -28 0 -25 -12 -24 -44 6 -29 26
-31 37 -16 65 9 17 5 22 -27 39 -122 62 -116 152 15 217 92 46 166 59 337 59
121 -1 167 -5 238 -23 106 -26 112 -27 67 -2 -43 23 -37 25 95 40 55 6 115 14
133 17 33 5 33 6 15 24 -10 10 -34 21 -53 25 -26 4 -31 3 -20 -5 13 -9 13 -11
-2 -11 -10 0 -18 4 -18 10 0 5 -16 16 -35 24 -19 8 -35 19 -35 23 0 16 101 42
127 32 13 -5 37 -9 53 -9 34 0 60 -9 60 -21 0 -8 -48 -5 -123 6 -15 3 -26 1
-23 -4 5 -8 28 -12 139 -28 36 -5 87 16 87 35 0 5 -22 18 -50 29 -27 12 -50
26 -50 32 0 14 560 15 607 2 27 -8 32 -6 37 12 3 12 4 22 3 23 -1 1 -126 7
-277 12 -151 6 -286 13 -300 16 -14 3 -38 1 -55 -4z m-2406 -412 c-13 -48 -11
-135 6 -227 18 -91 58 -211 146 -439 35 -88 57 -161 54 -172 -3 -10 1 -25 10
-33 21 -22 20 -24 -27 -41 -79 -28 -88 -29 -88 -10 0 10 -14 32 -30 49 -34 35
-121 221 -169 363 -78 227 -62 382 52 500 23 23 44 42 48 42 4 0 3 -15 -2 -32z
m-925 10 c32 -14 53 -45 76 -113 10 -29 34 -77 54 -107 20 -29 36 -56 36 -60
0 -3 -21 5 -46 19 -45 25 -49 26 -175 19 -106 -6 -134 -4 -159 9 -35 18 -46
52 -31 98 6 19 9 41 5 50 -4 12 4 20 31 31 20 9 48 24 63 35 44 31 103 39 146
19z m1250 -844 c53 -52 -46 -129 -200 -155 -65 -12 -74 -11 -105 7 -52 31 -49
73 8 95 34 13 56 1 50 -27 -3 -17 1 -25 14 -29 23 -8 117 18 144 40 19 14 19
16 3 29 -18 13 -23 37 -11 49 13 13 82 7 97 -9z m341 -233 c46 -33 162 -91
182 -91 35 0 18 -48 -35 -97 -32 -29 -43 -29 -154 4 l-90 27 -18 -21 c-16 -21
-19 -21 -32 -5 -9 9 -28 38 -43 65 -17 30 -34 47 -46 47 -13 0 -19 7 -19 24 0
14 -4 28 -10 31 -5 3 -10 15 -10 26 0 10 -4 19 -9 19 -5 0 -8 -12 -8 -26 0
-27 -18 -52 -30 -41 -3 4 -1 17 4 30 17 34 21 63 12 78 -6 10 -9 4 -9 -17 0
-17 -7 -37 -15 -44 -13 -10 -15 -9 -15 8 0 12 5 24 10 27 6 3 10 22 10 41 0
39 -17 45 -44 15 -11 -12 -25 -17 -37 -14 -18 5 -15 9 18 28 l38 22 153 -53
c91 -30 171 -65 197 -83z m-346 67 c-12 -20 -14 -21 -17 -5 -2 10 2 25 9 34
18 21 23 0 8 -29z m-39 -4 c2 -3 -2 -9 -10 -14 -20 -13 -140 -13 -140 0 0 22
129 34 150 14z m20 -48 c0 -15 -17 -20 -101 -31 -35 -4 -49 -2 -59 10 -10 12
-10 16 1 19 8 2 21 7 29 9 8 3 41 6 73 6 43 1 57 -2 57 -13z m28 -48 c-5 -14
-135 -35 -146 -23 -4 3 2 13 12 21 26 18 140 20 134 2z m72 -4 c0 -15 -22 -44
-31 -39 -11 7 7 45 21 45 6 0 10 -3 10 -6z m-60 -34 c20 -12 10 -20 -40 -31
-46 -11 -83 -4 -77 14 7 22 90 34 117 17z m76 -51 c8 -14 -14 -29 -43 -29 -32
0 -29 -18 7 -38 21 -12 30 -25 30 -42 0 -30 23 -65 52 -81 18 -10 24 -8 39 12
17 22 19 23 34 8 14 -14 15 -20 3 -38 -7 -12 -21 -24 -30 -27 -26 -8 -22 -23
7 -30 30 -7 31 -15 6 -31 -13 -8 -17 -19 -14 -36 7 -34 -10 -41 -40 -17 -18
15 -34 19 -52 14 -24 -6 -25 -4 -19 20 6 25 4 26 -33 26 -44 0 -80 21 -69 39
4 6 20 10 34 9 24 -3 27 1 30 29 3 26 -3 36 -32 59 -27 22 -34 34 -30 51 8 32
-2 43 -34 34 -33 -10 -52 -4 -52 15 0 9 11 14 31 14 26 0 30 3 26 20 -4 17 1
19 52 23 31 2 64 4 73 5 9 1 20 -3 24 -9z m-256 -837 c11 -31 42 -93 67 -137
59 -102 68 -161 30 -199 -17 -17 -37 -26 -59 -26 -18 -1 -44 -7 -58 -15 -23
-12 -27 -12 -50 10 -14 13 -44 42 -67 63 -34 32 -43 46 -43 74 0 39 14 61 87
141 51 56 59 75 55 135 -2 36 15 16 38 -46z"/>
<path d="M7253 4656 c4 -14 47 -21 47 -8 0 5 -11 12 -25 15 -16 3 -24 0 -22
-7z"/>
<path d="M5760 4398 c0 -4 14 -8 30 -8 17 0 30 2 30 4 0 2 -13 6 -30 8 -16 3
-30 1 -30 -4z"/>
<path d="M5526 4371 c7 -31 -11 -50 -29 -32 -16 16 -73 14 -106 -4 -54 -27
-50 -65 9 -95 37 -19 38 -19 56 2 11 11 29 24 42 29 17 7 22 14 17 28 -5 17 0
21 32 26 21 3 52 10 68 15 25 7 23 8 -12 3 -24 -3 -43 -1 -43 4 0 17 24 33 50
34 23 0 23 1 5 9 -11 5 -37 9 -57 9 -36 1 -37 0 -32 -28z"/>
<path d="M5127 4296 c-16 -12 -76 -30 -172 -52 -16 -3 -25 -8 -19 -11 29 -10
224 52 224 72 0 9 -15 5 -33 -9z"/>
<path d="M6357 4234 c-214 -16 -236 -21 -111 -23 243 -3 356 -104 224 -200
-39 -28 -40 -30 -21 -40 27 -15 67 -19 276 -26 99 -3 203 -8 230 -11 36 -4 46
-2 35 5 -8 6 -40 11 -70 12 -30 0 -64 4 -75 9 -18 7 -17 9 15 23 58 25 117 29
295 17 327 -21 385 -23 385 -14 0 5 -5 26 -10 46 -9 31 -16 38 -43 43 -153 25
-239 35 -310 35 -94 0 -514 37 -537 47 -22 10 95 20 250 22 88 2 127 5 114 11
-46 18 -36 30 25 30 111 0 63 17 -66 23 -184 10 -413 6 -606 -9z"/>
<path d="M5540 4221 c0 -11 12 -28 26 -37 23 -16 26 -16 42 -1 15 15 15 17 0
17 -8 0 -27 9 -42 21 l-26 20 0 -20z"/>
<path d="M4970 4220 c0 -5 8 -10 18 -13 32 -7 -78 -19 -140 -15 -59 4 -60 4
-40 -13 33 -26 6 -31 -104 -17 -99 13 -117 9 -138 -25 -8 -13 -7 -20 4 -27 20
-13 64 -12 77 1 15 15 5 39 -15 39 -12 0 -13 -3 -4 -12 20 -20 13 -29 -20 -26
-40 4 -47 24 -14 39 19 9 47 9 114 0 100 -14 174 -7 147 13 -14 10 -6 12 39
13 61 2 129 20 121 33 -7 11 -45 20 -45 10z"/>
<path d="M6093 4203 c9 -2 25 -2 35 0 9 3 1 5 -18 5 -19 0 -27 -2 -17 -5z"/>
<path d="M5690 4191 c0 -5 7 -12 16 -15 22 -9 24 -8 24 9 0 8 -9 15 -20 15
-11 0 -20 -4 -20 -9z"/>
<path d="M6018 4193 c6 -2 18 -2 25 0 6 3 1 5 -13 5 -14 0 -19 -2 -12 -5z"/>
<path d="M2275 4163 c-330 -118 -778 -301 -1035 -424 -80 -38 -157 -75 -173
-81 -28 -14 -31 -19 -41 -80 -4 -23 -18 -47 -37 -65 -41 -37 -149 -171 -149
-185 0 -5 7 -8 15 -4 22 8 18 -9 -10 -42 -14 -17 -25 -36 -25 -44 0 -8 -33
-47 -73 -86 -58 -56 -78 -70 -95 -65 -16 4 -24 0 -30 -16 -4 -12 -18 -27 -31
-34 -30 -15 -84 -82 -79 -97 2 -7 13 -4 30 9 36 28 47 26 55 -9 6 -35 5 -35
43 -15 47 25 34 4 -33 -50 -61 -50 -61 -50 -32 -53 18 -2 33 2 41 12 6 9 26
16 44 16 40 0 189 86 271 157 50 42 104 73 129 73 16 0 12 -42 -7 -63 -18 -20
-18 -20 16 -2 25 12 30 19 21 25 -11 7 -11 11 -1 24 8 9 20 16 27 16 8 0 25
23 39 51 22 42 35 55 80 75 29 14 59 32 67 41 15 19 78 47 86 39 3 -3 -2 -14
-11 -24 -10 -10 -17 -28 -17 -39 0 -13 -20 -33 -57 -59 -32 -21 -89 -68 -128
-105 -38 -36 -164 -145 -280 -241 -212 -177 -252 -214 -243 -223 2 -3 59 38
125 90 116 91 145 107 158 85 7 -11 -10 -28 -78 -84 -49 -40 -58 -56 -32 -56
34 0 10 -47 -61 -120 l-53 -55 41 -75 c39 -70 42 -73 50 -50 45 118 125 245
200 317 28 27 42 32 92 35 61 3 73 11 129 92 20 28 65 62 72 54 3 -3 -8 -23
-25 -46 -16 -23 -30 -44 -30 -47 0 -3 11 -5 25 -5 14 0 25 -4 25 -8 0 -15 -24
-32 -44 -32 -31 0 -100 -26 -104 -39 -2 -6 8 -11 22 -11 13 0 28 -5 32 -11 3
-6 22 -9 40 -7 33 4 44 -4 23 -17 -7 -5 -8 -25 -4 -55 l7 -47 -147 -152 c-81
-83 -143 -151 -138 -151 5 0 53 41 105 90 53 50 101 90 107 90 33 0 -8 -94
-55 -125 -36 -23 -25 -28 24 -11 23 9 42 11 42 6 0 -4 -19 -25 -42 -45 -41
-36 -42 -37 -15 -33 15 3 27 2 27 -2 0 -9 -50 -55 -75 -68 -19 -11 -19 -11 3
-12 12 0 39 7 59 15 32 13 37 13 47 0 13 -17 57 -9 50 9 -3 7 2 19 11 26 14
12 22 11 51 -5 32 -17 33 -19 18 -37 -24 -26 -7 -22 53 12 29 17 59 43 67 58
20 38 89 70 112 51 11 -9 14 -22 10 -42 -3 -16 -1 -38 5 -49 13 -24 -18 -72
-89 -142 -26 -24 -57 -58 -70 -75 -12 -16 -34 -32 -50 -34 -15 -2 -3 -5 27 -6
l53 -1 -36 -40 c-20 -22 -36 -44 -36 -50 0 -5 -25 -39 -55 -75 -58 -68 -61
-78 -17 -46 15 10 66 37 114 60 84 40 123 75 157 139 7 13 23 27 37 32 13 5
24 17 24 27 0 38 15 44 39 19 l24 -25 -64 -66 c-45 -47 -60 -68 -51 -74 9 -5
-28 -41 -113 -110 -70 -57 -124 -105 -122 -107 2 -2 20 3 40 11 20 8 45 15 57
15 29 0 114 63 198 147 40 40 77 73 82 73 5 0 14 -26 20 -58 11 -58 21 -84 42
-114 10 -13 7 -23 -15 -51 -15 -20 -27 -38 -27 -41 0 -3 19 -6 43 -6 28 0 37
3 28 9 -8 5 -11 16 -8 25 5 14 10 14 52 0 l45 -16 -22 -37 c-34 -57 -57 -89
-136 -190 -40 -52 -71 -99 -69 -104 8 -24 27 -16 41 17 13 31 58 66 84 66 12
0 0 -56 -18 -90 -8 -14 -15 -40 -17 -58 l-2 -34 50 7 c55 8 59 2 27 -32 -16
-17 -19 -26 -11 -34 9 -9 26 2 66 40 30 28 62 51 71 51 13 0 16 5 11 20 -6 18
-3 19 24 14 27 -6 31 -4 31 16 0 16 -4 20 -15 16 -23 -9 -18 12 8 28 26 16
134 36 198 36 67 0 74 -15 29 -56 -20 -19 -42 -34 -46 -34 -11 0 -64 -117 -64
-141 0 -9 12 -22 26 -29 20 -11 24 -19 19 -38 -6 -25 -52 -92 -64 -92 -3 -1
-17 -10 -31 -21 l-25 -21 27 -22 c14 -11 64 -54 112 -94 l85 -74 38 31 c21 17
53 33 71 37 21 4 47 23 77 56 l44 50 56 -7 c35 -5 52 -11 48 -18 -4 -6 27 16
69 49 41 32 147 115 234 183 87 69 161 127 164 130 7 8 95 73 232 172 208 149
251 179 360 250 l107 70 -55 67 c-160 195 -335 416 -439 553 -64 85 -121 153
-126 151 -6 -1 -8 2 -4 8 3 5 -27 56 -68 112 -278 389 -513 835 -641 1221 -45
134 -106 364 -106 399 0 22 1 22 -85 -9z m-1625 -1107 c0 -3 -4 -8 -10 -11 -5
-3 -10 -1 -10 4 0 6 5 11 10 11 6 0 10 -2 10 -4z"/>
<path d="M5968 4183 c6 -2 18 -2 25 0 6 3 1 5 -13 5 -14 0 -19 -2 -12 -5z"/>
<path d="M5186 4171 c5 -5 20 -12 34 -15 l25 -7 -25 15 c-28 17 -50 21 -34 7z"/>
<path d="M5006 4094 c6 -25 5 -26 -19 -20 -14 3 -32 9 -40 12 -12 4 -14 0 -10
-17 6 -23 0 -24 -52 -4 -16 7 -18 6 -7 -6 25 -27 14 -40 -27 -33 -34 5 -40 3
-46 -15 -8 -25 -14 -26 -63 -6 -30 13 -34 13 -22 2 8 -8 29 -19 47 -25 28 -9
33 -8 47 13 14 21 20 23 42 15 38 -15 54 -12 54 10 0 13 5 17 14 14 8 -3 19 3
26 15 9 17 14 19 31 11 11 -6 24 -8 29 -5 13 8 13 52 0 60 -7 4 -8 -3 -4 -21z"/>
<path d="M4880 3920 c0 -24 -20 -26 -62 -4 -16 9 -27 11 -23 5 3 -6 23 -18 43
-27 34 -14 38 -14 49 2 7 10 13 21 13 25 0 12 57 -10 71 -27 9 -11 15 -11 25
-3 21 17 59 3 73 -27 12 -26 11 -26 -21 -20 -111 21 -106 21 -100 -10 l5 -27
-31 21 c-29 21 -72 30 -72 15 0 -5 -7 -16 -15 -27 -13 -18 -15 -17 -39 10 -23
26 -25 27 -26 9 0 -11 -5 -27 -10 -35 -9 -13 -13 -11 -30 10 -24 30 -26 19 -4
-15 20 -31 27 -31 44 0 16 30 26 32 33 5 6 -25 30 -18 47 16 17 30 31 30 68
-1 38 -32 42 -31 42 5 0 28 2 29 33 24 17 -4 45 -13 61 -20 39 -19 39 -19 33
22 -6 36 -6 36 24 30 33 -6 51 16 30 37 -8 8 -11 7 -11 -6 0 -22 -25 -22 -87
-1 -32 11 -48 13 -51 5 -2 -6 -17 -3 -40 9 -48 26 -72 26 -72 0z"/>
<path d="M6845 3800 c-77 -10 -162 -20 -190 -22 -47 -3 -50 -5 -53 -33 -1 -17
-12 -69 -23 -116 -21 -86 -23 -165 -4 -163 6 1 204 26 440 55 514 64 517 74
20 65 -176 -3 -326 -2 -334 3 -23 15 75 39 184 46 55 3 136 15 180 25 l80 20
-105 -5 c-104 -4 -150 0 -150 15 0 14 32 20 268 51 170 22 246 36 274 50 22
11 38 22 36 24 -2 2 -24 -1 -49 -6 -43 -9 -250 -7 -379 4 -30 3 -118 -3 -195
-13z"/>
<path d="M4678 3708 c-3 -18 -8 -41 -13 -50 -7 -17 -4 -16 36 1 48 22 53 21
78 -20 l17 -28 28 25 c29 28 50 70 40 85 -8 14 -24 11 -18 -4 7 -20 -13 -67
-32 -74 -17 -6 -47 21 -56 49 -3 9 -12 8 -31 -5 -36 -24 -40 -22 -35 18 5 44
-8 46 -14 3z"/>
<path d="M2544 753 c-21 -14 -58 -35 -81 -45 -24 -10 -43 -21 -43 -23 0 -2 9
-9 20 -15 18 -10 31 -3 96 49 75 61 81 84 8 34z"/>
</g>
</svg>
